<?xml version="1.0" encoding="UTF-8"?>
<svg id="Layer_1" xmlns="http://www.w3.org/2000/svg" viewBox="0 0 360 45.22" fill="#fff">
  <g>
    <g>
      <path d="M52.66,0h10.2v45.22h-10.2V0Z"/>
      <path d="M96.65,27.53v17.7h-10.2V0h15.36c9.58,0,15.48,4.79,15.48,14.07,0,6.21-3.75,10.88-10.14,12.47l12.96,18.68h-12.29l-11.18-17.7ZM101.32,19.36c3.44,0,5.59-2.03,5.59-5.28s-2.15-5.28-5.59-5.28h-4.67v10.57h4.67Z"/>
      <path d="M140.34,0h10.2v45.22h-10.2V0Z"/>
      <path d="M233.86,0h10.2v45.22h-10.2V0Z"/>
      <path d="M279.02,0h9.95l15.36,45.22h-10.63l-2.09-6.82h-15.24l-2.09,6.82h-10.51L279.02,0ZM288.91,29.68l-4.98-16.04-4.92,16.04h9.89Z"/>
      <path d="M323.99,0h9.22l17.2,26.85V0h9.59v45.22h-9.22l-17.2-26.79v26.79h-9.59V0Z"/>
    </g>
    <path d="M189.59.01h-15.47v45.21h15.47c12.48,0,22.61-10.12,22.61-22.61S202.08.01,189.59.01ZM187.86,35.19h-3.53V10.05h3.53c10.36,0,13.95,5.83,13.95,12.57s-3.59,12.57-13.95,12.57Z"/>
  </g>
  <path d="M30.72.01h-8.12C10.12.01,0,10.13,0,22.62s10.12,22.61,22.61,22.61h8.12v-10.04h-6.38c-10.36,0-13.95-5.83-13.95-12.57s3.59-12.57,13.95-12.57h6.38V.01Z"/>
</svg>